<svg width="511" height="511" viewBox="0 0 511 511" fill="none" xmlns="http://www.w3.org/2000/svg">
<path fill-rule="evenodd" clip-rule="evenodd" d="M234.654 78.9589C253.634 58.4473 286.063 58.4473 305.043 78.9589L323.293 98.6818C331.54 107.594 342.86 113.045 354.969 113.936L376.832 115.545L247.238 411.839L227.269 419.708C201.269 429.953 172.052 415.883 163.851 389.167L155.965 363.479C152.402 351.872 144.568 342.048 134.045 335.992L110.755 322.588C97.4466 314.928 89.2719 301.932 87.2244 287.949C94.0174 290.456 101.057 292.692 108.344 294.657C117.775 297.096 127.611 298.965 137.855 300.266C148.098 301.648 158.585 302.339 169.316 302.339C185.575 302.339 200.331 300.835 213.582 297.827C226.833 294.738 238.133 290.267 247.482 284.413C256.913 278.479 264.148 271.243 269.188 262.707C274.31 254.09 276.871 244.294 276.871 233.319C276.871 225.108 275.367 217.71 272.359 211.125C269.351 204.459 264.92 198.809 259.067 194.175C253.214 189.46 245.938 185.842 237.239 183.322C228.622 180.802 218.704 179.542 207.485 179.542C201.55 179.542 195.412 179.867 189.071 180.517C182.811 181.086 176.633 181.737 170.536 182.468C164.52 183.2 158.748 183.891 153.22 184.541C147.773 185.11 142.936 185.395 138.708 185.395C128.319 185.395 120.563 183.64 115.44 180.129L114.042 170.94C113.016 164.199 113.445 157.593 115.084 151.428C116.098 150.647 117.225 149.897 118.466 149.178C122.53 146.739 127.977 144.747 134.806 143.202C141.716 141.658 150.496 140.885 161.146 140.885C168.625 140.885 175.942 141.332 183.096 142.227C190.331 143.04 197.323 144.178 204.07 145.641C210.818 147.104 217.281 148.852 223.459 150.885C229.638 152.836 235.41 154.99 240.775 157.348L257.726 126.13C251.222 123.203 244.19 120.561 236.629 118.204C229.069 115.765 221.183 113.692 212.972 111.985C209.038 111.158 205.047 110.427 200.998 109.792C206.773 107.175 212.022 103.417 216.404 98.6818L234.654 78.9589ZM115.816 220.896C118.479 213.467 119.289 205.433 118.083 197.506L115.44 180.129C115.391 180.096 115.343 180.063 115.295 180.029C110.173 176.371 107.613 171.696 107.613 166.006C107.613 163.079 108.385 160.152 109.93 157.226C111.059 155.136 112.777 153.203 115.084 151.428C120.162 132.327 136.859 117.458 157.929 115.908L184.727 113.936C190.403 113.519 195.905 112.099 200.998 109.792C196.681 109.114 192.299 108.544 187.852 108.082C179.234 107.107 170.658 106.619 162.122 106.619C150.334 106.619 139.806 107.473 130.538 109.18C121.352 110.806 113.222 113.082 106.149 116.009C99.1579 118.935 93.1826 122.431 88.2235 126.496C83.2645 130.479 79.1997 134.829 76.0292 139.544C72.9399 144.178 70.6636 149.056 69.2003 154.177C67.8183 159.299 67.1272 164.461 67.1272 169.664C67.1272 178.444 68.9158 186.127 72.4928 192.712C76.0698 199.296 80.8663 204.784 86.8822 209.174C92.9794 213.564 99.9302 216.856 107.735 219.051C110.392 219.791 113.086 220.406 115.816 220.896ZM115.816 220.896C114.447 224.717 112.587 228.378 110.26 231.782L96.3664 252.1C90.3823 249.315 84.4568 246.265 78.59 242.952L57.9814 274.292C65.2168 278.438 73.0618 282.259 81.5166 285.755C83.3995 286.508 85.3021 287.239 87.2244 287.949C85.5456 276.484 87.9858 264.357 95.0923 253.964L96.3664 252.1C97.4305 252.596 98.4965 253.083 99.5643 253.562C106.718 256.651 114.116 259.293 121.758 261.488C129.4 263.602 137.408 265.227 145.781 266.366C154.236 267.504 163.219 268.073 172.731 268.073C184.193 268.073 193.949 267.341 201.997 265.878C210.046 264.333 216.59 262.26 221.63 259.659C226.752 256.976 230.451 253.805 232.727 250.147C235.085 246.489 236.264 242.505 236.264 238.197C236.264 231.286 233.378 225.84 227.605 221.856C221.833 217.791 212.932 215.759 200.9 215.759C195.616 215.759 190.047 216.125 184.193 216.856C178.34 217.507 172.406 218.238 166.39 219.051C160.455 219.864 154.561 220.637 148.708 221.368C142.936 222.019 137.489 222.344 132.367 222.344C126.707 222.344 121.19 221.861 115.816 220.896ZM295.68 413.109L287.427 409.857C276.131 405.405 263.566 405.405 252.269 409.857L247.238 411.839L231.422 448H280.419L295.68 413.109ZM417.067 135.578C409.087 124.582 396.496 116.991 381.768 115.908L376.832 115.545L390.022 85.3875H439.02L417.067 135.578ZM417.067 135.578L295.68 413.109L312.428 419.708C338.428 429.953 367.645 415.883 375.846 389.167L383.731 363.479C387.294 351.872 395.128 342.048 405.652 335.992L428.941 322.588C453.162 308.648 460.378 277.032 444.604 253.964L429.437 231.782C422.584 221.759 419.788 209.51 421.614 197.506L425.655 170.94C427.637 157.912 424.188 145.389 417.067 135.578Z" fill="white"/>
</svg>
