<svg width="395" height="385" viewBox="0 0 395 385" fill="none" xmlns="http://www.w3.org/2000/svg">
<path fill-rule="evenodd" clip-rule="evenodd" d="M176.654 15.9589C195.634 -4.5527 228.063 -4.55271 247.043 15.9589L265.293 35.6818C273.54 44.5937 284.86 50.0454 296.969 50.9362L318.832 52.5447L189.238 348.839L169.269 356.708C143.269 366.953 114.052 352.883 105.851 326.167L97.9654 300.479C94.4023 288.872 86.5683 279.048 76.0448 272.992L52.7554 259.588C39.4466 251.928 31.2719 238.932 29.2244 224.949C36.0174 227.456 43.0574 229.692 50.3443 231.657C59.7746 234.096 69.6114 235.965 79.8547 237.266C90.098 238.648 100.585 239.339 111.316 239.339C127.575 239.339 142.331 237.835 155.582 234.827C168.833 231.738 180.133 227.267 189.482 221.413C198.913 215.479 206.148 208.243 211.188 199.707C216.31 191.09 218.871 181.294 218.871 170.319C218.871 162.108 217.367 154.71 214.359 148.125C211.351 141.459 206.92 135.809 201.067 131.175C195.214 126.46 187.938 122.842 179.239 120.322C170.622 117.802 160.704 116.542 149.485 116.542C143.55 116.542 137.412 116.867 131.071 117.517C124.811 118.086 118.633 118.737 112.536 119.468C106.52 120.2 100.748 120.891 95.2197 121.541C89.7729 122.11 84.9357 122.395 80.7083 122.395C70.3194 122.395 62.5632 120.64 57.4398 117.129L56.0419 107.94C55.0164 101.199 55.445 94.5927 57.084 88.4275C58.0975 87.6472 59.2248 86.8972 60.4656 86.1775C64.5304 83.7386 69.9773 81.7469 76.8061 80.2023C83.7163 78.6576 92.4963 77.8853 103.146 77.8853C110.625 77.8853 117.942 78.3324 125.096 79.2267C132.331 80.0397 139.323 81.1778 146.07 82.6411C152.818 84.1045 159.281 85.8523 165.459 87.8847C171.638 89.8358 177.41 91.9902 182.775 94.3478L199.726 63.1301C193.222 60.2034 186.19 57.5613 178.629 55.2037C171.069 52.7649 163.183 50.6918 154.972 48.9846C151.038 48.1584 147.047 47.4274 142.998 46.7916C148.773 44.1753 154.022 40.417 158.404 35.6818L176.654 15.9589ZM57.8164 157.896C60.4792 150.467 61.2889 142.433 60.083 134.506L57.4398 117.129C57.3913 117.096 57.3431 117.063 57.2951 117.029C52.1735 113.371 49.6126 108.696 49.6126 103.006C49.6126 100.079 50.3849 97.1525 51.9296 94.2258C53.0591 92.1361 54.7773 90.2033 57.084 88.4275C62.1619 69.3265 78.8588 54.458 99.9287 52.9078L126.727 50.9362C132.403 50.5187 137.905 49.0994 142.998 46.7916C138.681 46.1136 134.299 45.5439 129.852 45.0824C121.234 44.1068 112.658 43.6191 104.122 43.6191C92.3337 43.6191 81.8058 44.4727 72.5381 46.1799C63.3517 47.8058 55.2221 50.0821 48.1493 53.0088C41.1579 55.9354 35.1826 59.4311 30.2235 63.4959C25.2645 67.4794 21.1997 71.8288 18.0292 76.5439C14.9399 81.1778 12.6636 86.0556 11.2003 91.1772C9.81826 96.2989 9.12724 101.461 9.12724 106.664C9.12724 115.444 10.9158 123.127 14.4928 129.712C18.0698 136.296 22.8663 141.784 28.8822 146.174C34.9794 150.564 41.9302 153.856 49.7346 156.051C52.3916 156.791 55.0855 157.406 57.8164 157.896ZM57.8164 157.896C56.4469 161.717 54.5873 165.378 52.2597 168.782L38.3664 189.1C32.3823 186.315 26.4568 183.265 20.59 179.952L-0.0185547 211.292C7.21679 215.438 15.0618 219.259 23.5166 222.755C25.3995 223.508 27.3021 224.239 29.2244 224.949C27.5456 213.484 29.9858 201.357 37.0923 190.964L38.3664 189.1C39.4305 189.596 40.4965 190.083 41.5643 190.562C48.7184 193.651 56.1163 196.293 63.7581 198.488C71.4 200.602 79.4076 202.227 87.7811 203.366C96.2359 204.504 105.219 205.073 114.731 205.073C126.193 205.073 135.949 204.341 143.997 202.878C152.046 201.333 158.59 199.26 163.63 196.659C168.752 193.976 172.451 190.805 174.727 187.147C177.085 183.489 178.264 179.505 178.264 175.197C178.264 168.286 175.378 162.84 169.605 158.856C163.833 154.791 154.932 152.759 142.9 152.759C137.616 152.759 132.047 153.125 126.193 153.856C120.34 154.507 114.406 155.238 108.39 156.051C102.455 156.864 96.5611 157.637 90.7077 158.368C84.9357 159.019 79.4889 159.344 74.3673 159.344C68.7073 159.344 63.1904 158.861 57.8164 157.896ZM237.68 350.109L229.427 346.857C218.131 342.405 205.566 342.405 194.269 346.857L189.238 348.839L173.422 385H222.419L237.68 350.109ZM359.067 72.5778C351.087 61.5825 338.496 53.9914 323.768 52.9078L318.832 52.5447L332.022 22.3875H381.02L359.067 72.5778ZM359.067 72.5778L237.68 350.109L254.428 356.708C280.428 366.953 309.645 352.883 317.846 326.167L325.731 300.479C329.294 288.872 337.128 279.048 347.652 272.992L370.941 259.588C395.162 245.648 402.378 214.032 386.604 190.964L371.437 168.782C364.584 158.759 361.788 146.51 363.614 134.506L367.655 107.94C369.637 94.9119 366.188 82.3895 359.067 72.5778Z" fill="white"/>
</svg>
